# xmcd
# 
# Track frame offsets:
#     150
#     19132
#     41784
#     54293
#     67711
#     85100
#     103929
#     120229
#     133218
#     146953
#     160996
#     174420
#     188769
#     201223
#     215248
#     233486
#     244079
#     254192
#     266105
#     289311
#     308761
# 
# Disc length: 4336
# 
# Revision: 0
# Processed by: cddbd v1.5.2PL0 Copyright (c) Steve Scherf et al.
# Submitted via: fre:ac v1.0.17
# 
DISCID=3e10ee15
DTITLE=Various Artist - In The Mood For The Blues [CD 1)
DYEAR=2004
DGENRE=Blues
TTITLE0=Gary Moore - Still Got The Blues
TTITLE1=BB King - The Thrill Is Gone
TTITLE2=John Lee Hooker - I'm In The Mood
TTITLE3=Muddy Waters - Mannish Boy
TTITLE4=Fleetwood Mac - Need Your Love So Bad
TTITLE5=Cream - Crossroads
TTITLE6=John Mayall and The Bluesbreakers - All Your Love
TTITLE7=Tommy Tucker - High Healed Sneakers
TTITLE8=Koko Taylor - Wang Dang Doodle
TTITLE9=Howlin' Wolf - Smokestack Lightnin'
TTITLE10=Taj Mahal - Statesboro Blues
TTITLE11=Sonny Boy Williamson - Help Me
TTITLE12=Bo Diddley - Bo Diddley
TTITLE13=Albert King - Searchin' For A Woman
TTITLE14=The Commitments - Mustang Sally
TTITLE15=Buddy Guy - First Time I Met The Blues
TTITLE16=Chuck Berry - Down The Road A Piece
TTITLE17=Little Walter - My Babe
TTITLE18=Chris Rea - Nineties Blues
TTITLE19=Robert Cray - Right Next Door
TTITLE20=Santana - Black Magic Woman
EXTD=
EXTT0=
EXTT1=
EXTT2=
EXTT3=
EXTT4=
EXTT5=
EXTT6=
EXTT7=
EXTT8=
EXTT9=
EXTT10=
EXTT11=
EXTT12=
EXTT13=
EXTT14=
EXTT15=
EXTT16=
EXTT17=
EXTT18=
EXTT19=
EXTT20=
PLAYORDER=
